M48
; DRILL file {KiCad (5.1.6)-1} date 12/22/20 12:14:12
; FORMAT={-:-/ absolute / inch / decimal}
; #@! TF.CreationDate,2020-12-22T12:14:12+00:00
; #@! TF.GenerationSoftware,Kicad,Pcbnew,(5.1.6)-1
; #@! TF.FileFunction,Plated,1,2,PTH
FMAT,2
INCH
T1C0.0157
T2C0.0295
T3C0.0300
T4C0.0315
T5C0.0394
T6C0.0472
T7C0.0906
T8C0.0984
T9C0.1181
%
G90
G05
T1
X1.95Y-2.65
X2.05Y-3.725
X2.05Y-4.0
X2.125Y-4.625
X2.2Y-4.475
X2.3Y-5.875
X2.425Y-3.725
X2.55Y-4.475
X2.65Y-4.35
X2.7Y-4.75
X2.7Y-5.875
X2.825Y-3.6
X2.825Y-3.75
X2.825Y-3.875
X2.925Y-4.4
X2.925Y-4.55
X2.925Y-4.675
X3.0Y-4.7
X3.025Y-3.925
X3.1Y-3.875
X3.1Y-5.875
X3.35Y-4.5
X3.4Y-4.625
X3.425Y-4.425
X3.5Y-2.775
X3.5Y-5.875
X3.525Y-4.175
X3.55Y-3.15
X3.8Y-4.05
X3.9Y-3.2
X3.9Y-5.875
X3.975Y-3.9
X3.975Y-4.1
X4.0Y-4.2
X4.025Y-3.35
X4.05Y-3.65
X4.075Y-3.9
X4.1Y-4.4
X4.1Y-5.2
X4.125Y-4.65
X4.175Y-3.75
X4.175Y-3.9
X4.175Y-3.95
X4.175Y-4.05
X4.175Y-4.625
X4.225Y-2.1
X4.225Y-4.625
X4.25Y-3.85
X4.25Y-4.7
X4.3Y-3.2
X4.3Y-5.875
X4.325Y-4.625
X4.325Y-4.8
X4.4Y-2.5
X4.425Y-2.3
X4.5Y-5.3
X4.525Y-4.8
X4.55Y-3.0
X4.55Y-5.4
X4.55Y-5.5185
X4.6Y-3.4
X4.625Y-3.6
X4.65Y-3.25
X4.675Y-3.5
X4.7Y-1.525
X4.7Y-3.175
X4.7Y-3.9
X4.7Y-5.875
X4.725Y-4.725
X4.75Y-3.55
X4.75Y-3.8
X4.75Y-4.0
X4.75Y-4.1
X4.775Y-4.4
X4.8Y-3.75
X4.825Y-1.25
X4.825Y-4.5
X4.84Y-2.2675
X4.85Y-3.65
X4.85Y-4.0
X4.875Y-1.7
X4.875Y-5.4057
X4.9Y-2.675
X4.9Y-2.82
X4.9Y-2.9
X4.9Y-4.2
X4.9Y-4.95
X4.9Y-5.15
X4.975Y-3.25
X4.975Y-4.65
X5.025Y-4.675
X5.035Y-2.2075
X5.1Y-2.1
X5.1Y-5.875
X5.175Y-5.05
X5.175Y-5.25
X5.225Y-3.65
X5.3Y-3.65
X5.3Y-3.725
X5.3Y-3.8
X5.325Y-4.55
X5.3264Y-4.8736
X5.34Y-4.25
X5.375Y-2.625
X5.375Y-5.2
X5.4Y-4.7
X5.4Y-5.25
X5.4Y-5.6
X5.42Y-3.42
X5.45Y-2.75
X5.45Y-2.825
X5.45Y-4.95
X5.45Y-5.15
X5.46Y-2.36
X5.46Y-2.9
X5.46Y-3.38
X5.475Y-4.7
X5.48Y-1.48
X5.52Y-1.84
X5.52Y-3.54
X5.52Y-3.6
X5.52Y-4.46
X5.525Y-2.8
X5.525Y-5.8
X5.525Y-5.975
X5.54Y-2.6
X5.56Y-3.58
X5.58Y-2.6
X5.58Y-2.9
X5.58Y-3.0
X5.6Y-2.4875
X5.625Y-4.8
X5.625Y-5.975
X5.63Y-1.56
X5.7Y-1.48
X5.7Y-3.5
X5.72Y-3.8
X5.73Y-2.55
X5.74Y-2.06
X5.74Y-2.16
X5.75Y-4.725
X5.75Y-4.8
X5.75Y-6.075
X5.78Y-1.66
X5.8Y-1.72
X5.8Y-2.975
X5.8Y-3.075
X5.8Y-3.175
X5.8Y-3.475
X5.8Y-5.35
X5.82Y-1.88
X5.82Y-2.12
X5.82Y-2.28
X5.8325Y-1.5175
X5.84Y-2.59
X5.84Y-5.15
X5.88Y-1.52
X5.9Y-1.58
X5.925Y-4.875
X5.95Y-5.205
X5.9625Y-1.4375
X6.0Y-4.1
X6.0Y-4.18
X6.0Y-4.26
X6.0Y-5.3
X6.025Y-4.825
X6.04Y-4.22
X6.05Y-3.225
X6.05Y-3.475
X6.0575Y-1.89
X6.0575Y-1.99
X6.1Y-4.825
X6.14Y-3.8
X6.14Y-4.14
X6.2Y-1.48
X6.2Y-4.32
X6.2225Y-4.0125
X6.225Y-4.475
X6.23Y-3.36
X6.24Y-4.38
X6.25Y-1.875
X6.26Y-1.2
X6.26Y-3.325
X6.26Y-3.88
X6.27Y-1.3475
X6.27Y-2.51
X6.275Y-1.92
X6.3Y-1.125
X6.3Y-1.56
X6.3Y-2.85
X6.3Y-3.12
X6.3Y-3.4
X6.3Y-4.42
X6.3125Y-1.815
X6.325Y-4.525
X6.33Y-2.55
X6.33Y-3.08
X6.335Y-1.35
X6.3575Y-1.6
X6.36Y-2.9425
X6.475Y-3.375
X6.55Y-2.825
X6.57Y-2.41
X6.6Y-2.625
X6.625Y-1.675
X6.6307Y-4.3943
X6.64Y-4.0
X6.675Y-2.275
X6.675Y-2.975
X6.7125Y-4.7
X6.725Y-1.35
X6.775Y-3.375
X6.775Y-4.775
X6.775Y-5.1
X6.8Y-4.9
X6.825Y-4.8
X6.84Y-3.02
X6.86Y-2.8
X6.88Y-2.725
X6.9Y-1.325
X6.905Y-2.76
X6.925Y-1.775
X6.925Y-1.96
X6.925Y-2.275
X6.925Y-3.225
X6.94Y-3.52
X6.95Y-2.125
X6.95Y-2.375
X6.95Y-3.125
X6.98Y-3.54
X7.0Y-6.05
X7.04Y-2.62
X7.05Y-1.325
X7.0602Y-4.6198
X7.075Y-3.4
X7.075Y-4.45
X7.075Y-4.85
X7.075Y-5.05
X7.16Y-1.34
X7.175Y-5.15
X7.24Y-3.62
X7.26Y-1.34
X7.26Y-2.84
X7.26Y-3.075
X7.26Y-3.22
X7.275Y-2.575
X7.3Y-2.74
X7.3Y-2.975
X7.3Y-3.175
X7.36Y-1.34
X7.4Y-4.7
X7.44Y-2.78
X7.45Y-3.1
X7.45Y-4.075
X7.46Y-1.34
X7.46Y-2.28
X7.46Y-3.16
X7.46Y-3.64
X7.475Y-6.05
X7.48Y-2.88
X7.5Y-1.85
X7.5Y-2.46
X7.5Y-4.175
X7.52Y-1.62
X7.52Y-2.12
X7.52Y-2.34
X7.52Y-2.54
X7.52Y-3.12
X7.52Y-4.955
X7.53Y-2.0575
X7.54Y-2.62
X7.54Y-2.94
X7.56Y-1.34
X7.58Y-2.82
X7.62Y-1.5
X7.62Y-3.64
X7.625Y-6.05
X7.66Y-1.34
X7.66Y-1.54
X7.68Y-3.32
X7.72Y-1.68
X7.72Y-3.38
X7.73Y-2.21
X7.74Y-1.38
X7.74Y-2.92
X7.74Y-3.18
X7.8Y-3.4
X7.8Y-5.75
X7.82Y-1.52
X7.82Y-3.78
X7.83Y-3.85
X7.84Y-1.34
X7.84Y-4.16
X7.85Y-3.325
X7.86Y-1.38
X7.86Y-2.43
X7.86Y-2.94
X7.86Y-3.42
X7.9Y-1.925
X7.9Y-2.025
X7.9Y-2.32
X7.9374Y-5.4551
X7.94Y-1.34
X7.94Y-3.66
X7.98Y-4.64
X7.9925Y-4.8037
X8.02Y-1.35
X8.02Y-4.7025
X8.07Y-3.68
X8.08Y-2.02
X8.08Y-3.42
X8.09Y-3.6
X8.1Y-3.12
X8.1Y-3.26
X8.12Y-3.48
X8.1375Y-3.68
X8.16Y-2.68
X8.16Y-5.04
X8.16Y-5.2
X8.175Y-1.35
X8.1775Y-1.68
X8.18Y-1.42
X8.225Y-4.9
X8.225Y-5.2
X8.225Y-5.35
X8.275Y-1.35
X8.285Y-4.5
X8.2975Y-3.9275
X8.32Y-3.12
X8.32Y-3.26
X8.34Y-2.68
X8.35Y-1.35
X8.35Y-1.78
X8.38Y-3.0775
X8.42Y-4.4
X8.45Y-1.35
X8.505Y-1.6725
X8.505Y-3.63
X8.5225Y-2.135
X8.535Y-3.725
X8.5375Y-2.27
X8.54Y-4.82
X8.56Y-5.66
X8.565Y-3.825
X8.57Y-3.4775
X8.595Y-3.9225
X8.6Y-2.82
X8.6Y-3.42
X8.6Y-5.08
X8.625Y-1.35
X8.625Y-4.025
X8.6325Y-1.8725
X8.635Y-4.7
X8.64Y-5.6
X8.655Y-4.095
X8.655Y-5.46
X8.6725Y-1.97
X8.675Y-3.82
X8.68Y-5.7
X8.69Y-2.1325
X8.725Y-1.35
X8.74Y-3.08
X8.74Y-3.18
X8.74Y-5.025
X8.7425Y-4.2275
X8.775Y-3.925
X8.7975Y-4.34
X8.825Y-1.35
X8.84Y-5.34
X8.84Y-6.025
X8.925Y-1.35
X8.94Y-2.785
X8.95Y-4.27
X8.98Y-2.24
X9.02Y-5.12
X9.025Y-1.35
X9.0275Y-3.0725
X9.04Y-2.76
X9.1Y-2.8
X9.125Y-1.35
X9.13Y-4.315
X9.1425Y-5.115
X9.1475Y-3.135
X9.155Y-2.365
X9.1575Y-2.5175
X9.1875Y-3.825
X9.205Y-2.3075
X9.205Y-2.445
X9.2375Y-4.7025
X9.24Y-3.54
X9.2425Y-3.9175
X9.295Y-3.94
X9.2975Y-4.5475
X9.33Y-3.07
X9.355Y-3.73
X9.3575Y-3.89
X9.36Y-3.68
X9.3625Y-4.8725
X9.3725Y-4.2675
X9.3825Y-4.4225
X9.395Y-3.2675
X9.4025Y-2.515
X9.417Y-5.2905
X9.42Y-2.2
X9.4775Y-3.0425
X9.4825Y-2.905
X9.4925Y-4.9825
X9.535Y-2.6725
X9.54Y-4.3475
X9.5875Y-4.2725
X9.5975Y-2.9025
X9.6Y-6.0
X9.62Y-3.89
X9.6475Y-3.175
X9.6575Y-3.63
X9.6825Y-4.79
X9.6875Y-3.425
X9.6925Y-4.59
X9.7225Y-5.3125
X9.7625Y-3.575
X9.785Y-3.905
X9.8Y-2.8
X9.875Y-4.1175
X9.8775Y-3.9025
X9.985Y-2.9425
X10.0Y-4.5675
X10.025Y-2.905
X10.0675Y-4.8275
T2
X9.62Y-4.4525
X9.62Y-4.5025
X9.62Y-4.5525
X9.4625Y-4.4475
X9.4625Y-4.4975
X9.4625Y-4.5475
X3.275Y-3.25
X3.325Y-3.25
X3.375Y-3.25
X2.45Y-2.65
X2.5Y-2.65
X2.55Y-2.65
X4.2Y-3.15
X4.2Y-3.2
X4.2Y-3.25
X8.555Y-5.275
X8.605Y-5.275
X8.655Y-5.275
X4.0Y-3.15
X4.0Y-3.2
X4.0Y-3.25
X6.61Y-1.8975
X6.61Y-1.9475
X6.61Y-1.9975
X2.125Y-2.65
X2.175Y-2.65
X2.225Y-2.65
T3
X1.855Y-2.55
X2.295Y-2.55
X5.905Y-4.35
X6.345Y-4.35
X4.15Y-1.53
X4.15Y-1.97
X3.205Y-4.375
X3.645Y-4.375
X8.43Y-3.725
X8.87Y-3.725
X5.18Y-4.5
X5.62Y-4.5
X3.205Y-3.55
X3.645Y-3.55
X4.53Y-2.05
X4.97Y-2.05
X9.57Y-3.125
X10.01Y-3.125
X3.205Y-4.275
X3.645Y-4.275
X3.88Y-4.4
X4.32Y-4.4
X3.205Y-3.65
X3.645Y-3.65
X8.48Y-4.975
X8.92Y-4.975
X5.605Y-5.15
X6.045Y-5.15
X9.055Y-4.875
X9.495Y-4.875
X3.85Y-1.53
X3.85Y-1.97
X3.88Y-3.8
X4.32Y-3.8
X4.05Y-1.53
X4.05Y-1.97
X2.13Y-3.625
X2.57Y-3.625
X3.88Y-4.1
X4.32Y-4.1
X2.43Y-2.45
X2.87Y-2.45
X8.48Y-5.075
X8.92Y-5.075
X5.18Y-4.2
X5.62Y-4.2
X7.105Y-4.7
X7.545Y-4.7
X5.18Y-3.9
X5.62Y-3.9
X3.88Y-4.0
X4.32Y-4.0
X6.705Y-5.875
X7.145Y-5.875
X2.13Y-4.325
X2.57Y-4.325
X2.13Y-3.325
X2.57Y-3.325
X8.43Y-3.425
X8.87Y-3.425
X2.03Y-4.825
X2.47Y-4.825
X2.13Y-3.425
X2.57Y-3.425
X3.75Y-1.53
X3.75Y-1.97
X9.575Y-2.3
X9.6Y-2.2
X9.6Y-2.5
X9.625Y-2.4
X9.725Y-2.2
X9.725Y-2.35
X9.725Y-2.5
X10.025Y-2.2
X10.025Y-2.35
X10.025Y-2.5
X3.155Y-2.75
X3.595Y-2.75
X3.155Y-2.65
X3.595Y-2.65
X2.13Y-3.525
X2.57Y-3.525
X2.13Y-3.05
X2.57Y-3.05
X9.57Y-3.225
X10.01Y-3.225
X3.88Y-3.5
X4.32Y-3.5
X5.905Y-4.15
X6.345Y-4.15
X5.18Y-4.0
X5.62Y-4.0
X3.88Y-4.2
X4.32Y-4.2
X3.205Y-3.15
X3.645Y-3.15
X6.155Y-5.875
X6.595Y-5.875
X2.13Y-4.225
X2.57Y-4.225
X3.88Y-3.6
X4.32Y-3.6
X3.205Y-3.35
X3.645Y-3.35
X3.88Y-3.7
X4.32Y-3.7
X4.53Y-2.25
X4.97Y-2.25
X4.25Y-1.53
X4.25Y-1.97
X4.43Y-4.8
X4.87Y-4.8
X4.005Y-5.875
X4.445Y-5.875
X2.13Y-2.85
X2.57Y-2.85
X8.43Y-3.625
X8.87Y-3.625
X3.205Y-3.85
X3.645Y-3.85
X4.53Y-1.75
X4.97Y-1.75
X4.53Y-2.35
X4.97Y-2.35
X4.53Y-1.85
X4.97Y-1.85
X5.93Y-4.7
X6.37Y-4.7
X5.18Y-4.4
X5.62Y-4.4
X9.03Y-3.2
X9.47Y-3.2
X6.58Y-4.7
X7.02Y-4.7
X5.605Y-5.25
X6.045Y-5.25
X3.88Y-3.0
X4.32Y-3.0
X8.48Y-4.875
X8.92Y-4.875
X6.0575Y-1.6775
X6.0575Y-2.1175
X3.88Y-3.4
X4.32Y-3.4
X4.53Y-1.95
X4.97Y-1.95
X3.205Y-3.05
X3.645Y-3.05
X4.805Y-5.875
X5.245Y-5.875
X2.405Y-5.875
X2.845Y-5.875
X6.63Y-1.5
X7.07Y-1.5
X2.13Y-2.95
X2.57Y-2.95
X8.43Y-4.025
X8.87Y-4.025
X9.57Y-3.625
X10.01Y-3.625
X9.03Y-3.5
X9.47Y-3.5
X2.13Y-3.825
X2.57Y-3.825
X5.905Y-4.05
X6.345Y-4.05
X8.43Y-3.525
X8.87Y-3.525
X5.18Y-4.3
X5.62Y-4.3
X5.605Y-5.05
X6.045Y-5.05
X5.18Y-4.1
X5.62Y-4.1
X3.205Y-3.75
X3.645Y-3.75
X2.13Y-4.125
X2.57Y-4.125
X3.63Y-4.8
X4.07Y-4.8
X3.205Y-3.45
X3.645Y-3.45
X4.53Y-2.15
X4.97Y-2.15
X9.825Y-5.425
X9.825Y-5.825
X3.95Y-1.53
X3.95Y-1.97
X9.57Y-3.325
X10.01Y-3.325
X2.13Y-3.725
X2.57Y-3.725
X3.205Y-2.95
X3.645Y-2.95
X8.48Y-4.7
X8.92Y-4.7
X4.35Y-1.53
X4.35Y-1.97
X2.13Y-2.75
X2.57Y-2.75
X9.055Y-4.7
X9.495Y-4.7
X9.02Y-3.4
X9.46Y-3.4
X5.905Y-3.95
X6.345Y-3.95
X8.43Y-3.925
X8.87Y-3.925
X5.905Y-4.25
X6.345Y-4.25
X7.23Y-5.875
X7.67Y-5.875
X5.905Y-3.85
X6.345Y-3.85
X3.88Y-4.3
X4.32Y-4.3
X2.13Y-3.925
X2.57Y-3.925
X2.13Y-4.025
X2.57Y-4.025
X4.53Y-2.45
X4.97Y-2.45
X8.43Y-3.225
X8.87Y-3.225
X3.205Y-4.475
X3.645Y-4.475
X3.205Y-5.875
X3.645Y-5.875
X8.48Y-1.525
X8.92Y-1.525
X3.205Y-2.85
X3.645Y-2.85
X8.43Y-3.825
X8.87Y-3.825
X9.57Y-3.425
X10.01Y-3.425
X8.43Y-4.225
X8.87Y-4.225
X9.57Y-3.525
X10.01Y-3.525
X3.88Y-3.9
X4.32Y-3.9
X5.18Y-4.6
X5.62Y-4.6
X5.18Y-4.7
X5.62Y-4.7
X5.605Y-4.95
X6.045Y-4.95
X5.18Y-3.8
X5.62Y-3.8
X7.68Y-4.7
X8.12Y-4.7
X9.03Y-4.025
X9.47Y-4.025
X2.83Y-4.8
X3.27Y-4.8
X8.43Y-3.325
X8.87Y-3.325
X8.43Y-3.125
X8.87Y-3.125
X3.155Y-2.55
X3.595Y-2.55
X4.53Y-1.65
X4.97Y-1.65
X1.855Y-2.45
X2.295Y-2.45
X3.155Y-2.45
X3.595Y-2.45
X9.03Y-3.6
X9.47Y-3.6
X8.43Y-4.125
X8.87Y-4.125
T4
X3.9571Y-2.175
X4.15Y-2.175
X6.875Y-3.85
X6.875Y-3.95
X6.875Y-4.05
X6.875Y-4.15
X6.875Y-4.25
X6.875Y-4.35
X6.875Y-4.45
X6.875Y-4.55
X7.175Y-3.85
X7.175Y-3.95
X7.175Y-4.05
X7.175Y-4.15
X7.175Y-4.25
X7.175Y-4.35
X7.175Y-4.45
X7.175Y-4.55
X6.775Y-2.675
X6.775Y-2.775
X6.775Y-2.875
X6.775Y-2.975
X6.775Y-3.075
X6.775Y-3.175
X6.775Y-3.275
X7.075Y-2.675
X7.075Y-2.775
X7.075Y-2.875
X7.075Y-2.975
X7.075Y-3.075
X7.075Y-3.175
X7.075Y-3.275
X2.4Y-4.95
X2.4Y-5.05
X2.4Y-5.15
X2.4Y-5.25
X2.4Y-5.35
X2.4Y-5.45
X2.4Y-5.55
X2.4Y-5.65
X2.7Y-4.95
X2.7Y-5.05
X2.7Y-5.15
X2.7Y-5.25
X2.7Y-5.35
X2.7Y-5.45
X2.7Y-5.55
X2.7Y-5.65
X8.25Y-1.675
X8.25Y-1.775
X8.25Y-1.875
X8.25Y-1.975
X8.25Y-2.075
X8.25Y-2.175
X8.25Y-2.275
X8.25Y-2.375
X8.25Y-2.475
X8.25Y-2.575
X8.25Y-2.675
X8.25Y-2.775
X8.25Y-2.875
X8.25Y-2.975
X8.85Y-1.675
X8.85Y-1.775
X8.85Y-1.875
X8.85Y-1.975
X8.85Y-2.075
X8.85Y-2.175
X8.85Y-2.275
X8.85Y-2.375
X8.85Y-2.475
X8.85Y-2.575
X8.85Y-2.675
X8.85Y-2.775
X8.85Y-2.875
X8.85Y-2.975
X6.475Y-3.85
X6.475Y-3.95
X6.475Y-4.05
X6.475Y-4.15
X6.475Y-4.25
X6.475Y-4.35
X6.475Y-4.45
X6.475Y-4.55
X6.775Y-3.85
X6.775Y-3.95
X6.775Y-4.05
X6.775Y-4.15
X6.775Y-4.25
X6.775Y-4.35
X6.775Y-4.45
X6.775Y-4.55
X3.6Y-4.95
X3.6Y-5.05
X3.6Y-5.15
X3.6Y-5.25
X3.6Y-5.35
X3.6Y-5.45
X3.6Y-5.55
X3.6Y-5.65
X3.9Y-4.95
X3.9Y-5.05
X3.9Y-5.15
X3.9Y-5.25
X3.9Y-5.35
X3.9Y-5.45
X3.9Y-5.55
X3.9Y-5.65
X4.8Y-4.95
X4.8Y-5.05
X4.8Y-5.15
X4.8Y-5.25
X4.8Y-5.35
X4.8Y-5.45
X4.8Y-5.55
X4.8Y-5.65
X5.1Y-4.95
X5.1Y-5.05
X5.1Y-5.15
X5.1Y-5.25
X5.1Y-5.35
X5.1Y-5.45
X5.1Y-5.55
X5.1Y-5.65
X4.0Y-4.95
X4.0Y-5.05
X4.0Y-5.15
X4.0Y-5.25
X4.0Y-5.35
X4.0Y-5.45
X4.0Y-5.55
X4.0Y-5.65
X4.3Y-4.95
X4.3Y-5.05
X4.3Y-5.15
X4.3Y-5.25
X4.3Y-5.35
X4.3Y-5.45
X4.3Y-5.55
X4.3Y-5.65
X3.2Y-4.95
X3.2Y-5.05
X3.2Y-5.15
X3.2Y-5.25
X3.2Y-5.35
X3.2Y-5.45
X3.2Y-5.55
X3.2Y-5.65
X3.5Y-4.95
X3.5Y-5.05
X3.5Y-5.15
X3.5Y-5.25
X3.5Y-5.35
X3.5Y-5.45
X3.5Y-5.55
X3.5Y-5.65
X5.65Y-2.675
X5.65Y-2.775
X5.65Y-2.875
X5.65Y-2.975
X5.65Y-3.075
X5.65Y-3.175
X5.65Y-3.275
X5.65Y-3.375
X5.95Y-2.675
X5.95Y-2.775
X5.95Y-2.875
X5.95Y-2.975
X5.95Y-3.075
X5.95Y-3.175
X5.95Y-3.275
X5.95Y-3.375
X6.6Y-4.95
X6.6Y-5.05
X6.6Y-5.15
X6.6Y-5.25
X6.6Y-5.35
X6.6Y-5.45
X6.6Y-5.55
X6.6Y-5.65
X6.9Y-4.95
X6.9Y-5.05
X6.9Y-5.15
X6.9Y-5.25
X6.9Y-5.35
X6.9Y-5.45
X6.9Y-5.55
X6.9Y-5.65
X2.0Y-4.95
X2.0Y-5.05
X2.0Y-5.15
X2.0Y-5.25
X2.0Y-5.35
X2.0Y-5.45
X2.0Y-5.55
X2.0Y-5.65
X2.3Y-4.95
X2.3Y-5.05
X2.3Y-5.15
X2.3Y-5.25
X2.3Y-5.35
X2.3Y-5.45
X2.3Y-5.55
X2.3Y-5.65
X4.45Y-2.6
X4.45Y-2.7
X4.45Y-2.8
X4.45Y-2.9
X4.45Y-3.0
X4.45Y-3.1
X4.45Y-3.2
X4.45Y-3.3
X4.45Y-3.4
X4.45Y-3.5
X4.45Y-3.6
X4.45Y-3.7
X4.45Y-3.8
X4.45Y-3.9
X4.45Y-4.0
X4.45Y-4.1
X4.45Y-4.2
X4.45Y-4.3
X4.45Y-4.4
X4.45Y-4.5
X5.05Y-2.6
X5.05Y-2.7
X5.05Y-2.8
X5.05Y-2.9
X5.05Y-3.0
X5.05Y-3.1
X5.05Y-3.2
X5.05Y-3.3
X5.05Y-3.4
X5.05Y-3.5
X5.05Y-3.6
X5.05Y-3.7
X5.05Y-3.8
X5.05Y-3.9
X5.05Y-4.0
X5.05Y-4.1
X5.05Y-4.2
X5.05Y-4.3
X5.05Y-4.4
X5.05Y-4.5
X9.725Y-4.025
X10.025Y-4.025
X7.675Y-3.85
X7.675Y-3.95
X7.675Y-4.05
X7.675Y-4.15
X7.675Y-4.25
X7.675Y-4.35
X7.675Y-4.45
X7.675Y-4.55
X7.975Y-3.85
X7.975Y-3.95
X7.975Y-4.05
X7.975Y-4.15
X7.975Y-4.25
X7.975Y-4.35
X7.975Y-4.45
X7.975Y-4.55
X6.175Y-1.675
X6.175Y-1.775
X6.175Y-1.875
X6.175Y-1.975
X6.175Y-2.075
X6.175Y-2.175
X6.175Y-2.275
X6.175Y-2.375
X6.475Y-1.675
X6.475Y-1.775
X6.475Y-1.875
X6.475Y-1.975
X6.475Y-2.075
X6.475Y-2.175
X6.475Y-2.275
X6.475Y-2.375
X6.2Y-4.95
X6.2Y-5.05
X6.2Y-5.15
X6.2Y-5.25
X6.2Y-5.35
X6.2Y-5.45
X6.2Y-5.55
X6.2Y-5.65
X6.5Y-4.95
X6.5Y-5.05
X6.5Y-5.15
X6.5Y-5.25
X6.5Y-5.35
X6.5Y-5.45
X6.5Y-5.55
X6.5Y-5.65
X4.4Y-4.95
X4.4Y-5.05
X4.4Y-5.15
X4.4Y-5.25
X4.4Y-5.35
X4.4Y-5.45
X4.4Y-5.55
X4.4Y-5.65
X4.7Y-4.95
X4.7Y-5.05
X4.7Y-5.15
X4.7Y-5.25
X4.7Y-5.35
X4.7Y-5.45
X4.7Y-5.55
X4.7Y-5.65
X1.975Y-2.0
X2.1719Y-2.0
X3.725Y-2.4571
X3.725Y-2.65
X7.275Y-3.85
X7.275Y-3.95
X7.275Y-4.05
X7.275Y-4.15
X7.275Y-4.25
X7.275Y-4.35
X7.275Y-4.45
X7.275Y-4.55
X7.575Y-3.85
X7.575Y-3.95
X7.575Y-4.05
X7.575Y-4.15
X7.575Y-4.25
X7.575Y-4.35
X7.575Y-4.45
X7.575Y-4.55
X2.725Y-2.85
X2.725Y-2.95
X2.725Y-3.05
X2.725Y-3.15
X2.725Y-3.25
X2.725Y-3.35
X2.725Y-3.45
X2.725Y-3.55
X2.725Y-3.65
X3.025Y-2.85
X3.025Y-2.95
X3.025Y-3.05
X3.025Y-3.15
X3.025Y-3.25
X3.025Y-3.35
X3.025Y-3.45
X3.025Y-3.55
X3.025Y-3.65
X7.4Y-4.95
X7.4Y-5.05
X7.4Y-5.15
X7.4Y-5.25
X7.4Y-5.35
X7.4Y-5.45
X7.4Y-5.55
X7.4Y-5.65
X7.7Y-4.95
X7.7Y-5.05
X7.7Y-5.15
X7.7Y-5.25
X7.7Y-5.35
X7.7Y-5.45
X7.7Y-5.55
X7.7Y-5.65
X6.775Y-1.675
X6.775Y-1.775
X6.775Y-1.875
X6.775Y-1.975
X6.775Y-2.075
X6.775Y-2.175
X6.775Y-2.275
X6.775Y-2.375
X7.075Y-1.675
X7.075Y-1.775
X7.075Y-1.875
X7.075Y-1.975
X7.075Y-2.075
X7.075Y-2.175
X7.075Y-2.275
X7.075Y-2.375
X2.8Y-4.95
X2.8Y-5.05
X2.8Y-5.15
X2.8Y-5.25
X2.8Y-5.35
X2.8Y-5.45
X2.8Y-5.55
X2.8Y-5.65
X3.1Y-4.95
X3.1Y-5.05
X3.1Y-5.15
X3.1Y-5.25
X3.1Y-5.35
X3.1Y-5.45
X3.1Y-5.55
X3.1Y-5.65
X5.6Y-1.675
X5.6Y-1.775
X5.6Y-1.875
X5.6Y-1.975
X5.6Y-2.075
X5.6Y-2.175
X5.6Y-2.275
X5.6Y-2.375
X5.9Y-1.675
X5.9Y-1.775
X5.9Y-1.875
X5.9Y-1.975
X5.9Y-2.075
X5.9Y-2.175
X5.9Y-2.275
X5.9Y-2.375
X7.0Y-4.95
X7.0Y-5.05
X7.0Y-5.15
X7.0Y-5.25
X7.0Y-5.35
X7.0Y-5.45
X7.0Y-5.55
X7.0Y-5.65
X7.3Y-4.95
X7.3Y-5.05
X7.3Y-5.15
X7.3Y-5.25
X7.3Y-5.35
X7.3Y-5.45
X7.3Y-5.55
X7.3Y-5.65
X6.175Y-2.675
X6.175Y-2.775
X6.175Y-2.875
X6.175Y-2.975
X6.175Y-3.075
X6.175Y-3.175
X6.175Y-3.275
X6.475Y-2.675
X6.475Y-2.775
X6.475Y-2.875
X6.475Y-2.975
X6.475Y-3.075
X6.475Y-3.175
X6.475Y-3.275
X7.375Y-1.675
X7.375Y-1.775
X7.375Y-1.875
X7.375Y-1.975
X7.375Y-2.075
X7.375Y-2.175
X7.375Y-2.275
X7.375Y-2.375
X7.375Y-2.475
X7.375Y-2.575
X7.375Y-2.675
X7.375Y-2.775
X7.375Y-2.875
X7.375Y-2.975
X7.375Y-3.075
X7.375Y-3.175
X7.375Y-3.275
X7.375Y-3.375
X7.375Y-3.475
X7.375Y-3.575
X7.975Y-1.675
X7.975Y-1.775
X7.975Y-1.875
X7.975Y-1.975
X7.975Y-2.075
X7.975Y-2.175
X7.975Y-2.275
X7.975Y-2.375
X7.975Y-2.475
X7.975Y-2.575
X7.975Y-2.675
X7.975Y-2.775
X7.975Y-2.875
X7.975Y-2.975
X7.975Y-3.075
X7.975Y-3.175
X7.975Y-3.275
X7.975Y-3.375
X7.975Y-3.475
X7.975Y-3.575
T5
X9.825Y-5.1
X9.675Y-5.1
X8.475Y-4.5
X8.575Y-4.5
X8.675Y-4.5
X8.775Y-4.5
X8.875Y-4.5
X8.975Y-4.5
X9.075Y-4.5
X9.175Y-4.5
X9.825Y-4.95
X9.675Y-4.95
X5.325Y-1.2
X5.325Y-1.3
X5.325Y-1.4
X10.025Y-1.8
X10.025Y-1.9
X10.025Y-2.0
X5.475Y-1.2
X5.475Y-1.3
X5.475Y-1.4
X3.0Y-4.05
X3.1Y-4.05
X3.2Y-4.05
X3.3Y-4.05
X3.4Y-4.05
X5.625Y-1.2
X5.625Y-1.3
X5.625Y-1.4
X5.775Y-1.2
X5.775Y-1.3
X5.775Y-1.4
T6
X1.95Y-3.975
X1.95Y-4.6837
X5.25Y-5.7
X5.9587Y-5.7
X9.05Y-3.825
X9.7587Y-3.825
X9.05Y-4.225
X9.7587Y-4.225
X8.0Y-5.8
X8.7087Y-5.8
X9.0Y-2.675
X9.7087Y-2.675
X8.22Y-3.84
X8.22Y-4.5487
X5.3Y-1.65
X5.3Y-2.5319
X8.05Y-4.9
X8.05Y-5.6087
X5.3Y-2.7913
X5.3Y-3.5
X9.0Y-2.95
X9.7087Y-2.95
X5.2663Y-5.425
X5.975Y-5.425
X1.95Y-3.0663
X1.95Y-3.775
T7
X2.225Y-1.4612
T8
X2.0478Y-1.5006
X2.4022Y-1.5006
T9
X2.225Y-1.225
T5
G00X3.975Y-1.1894
M15
G01X3.975Y-1.1106
M16
G05
G00X3.975Y-1.3356
M15
G01X3.975Y-1.4144
M16
G05
G00X4.35Y-1.3356
M15
G01X4.35Y-1.4144
M16
G05
G00X4.55Y-1.1894
M15
G01X4.55Y-1.1106
M16
G05
G00X4.55Y-1.3356
M15
G01X4.55Y-1.4144
M16
G05
G00X4.925Y-1.3356
M15
G01X4.925Y-1.4144
M16
G05
G00X9.765Y-1.3425
M15
G01X9.765Y-1.4213
M16
G05
G00X9.9894Y-1.2638
M15
G01X9.9106Y-1.2638
M16
G05
G00X9.9894Y-1.5
M15
G01X9.9106Y-1.5
M16
G05
T0
M30
